<?xml version="1.0" standalone="no"?>
<!DOCTYPE svg PUBLIC "-//W3C//DTD SVG 20010904//EN"
 "http://www.w3.org/TR/2001/REC-SVG-20010904/DTD/svg10.dtd">
<svg version="1.0" xmlns="http://www.w3.org/2000/svg"
 width="2000.000000pt" height="1440.000000pt" viewBox="0 0 2000.000000 1440.000000"
 preserveAspectRatio="xMidYMid meet">

<g transform="translate(0.000000,1440.000000) scale(0.100000,-0.100000)"
fill="#000000" stroke="none">
<path d="M9700 11189 c-1615 -122 -2995 -1203 -3501 -2741 -260 -790 -261
-1674 -3 -2469 153 -471 377 -887 692 -1281 128 -161 415 -450 570 -576 620
-503 1348 -807 2117 -887 585 -60 1145 3 1700 189 1081 365 1961 1185 2404
2242 372 890 408 1904 98 2819 -224 662 -625 1262 -1153 1724 -804 705 -1865
1061 -2924 980z m630 -590 c1424 -139 2620 -1168 2969 -2554 113 -448 133
-968 56 -1418 -100 -581 -360 -1144 -739 -1602 -95 -114 -324 -343 -440 -438
-458 -380 -1002 -634 -1576 -737 -379 -67 -831 -67 -1210 0 -1064 191 -1978
881 -2455 1855 -179 365 -286 733 -329 1132 -18 164 -21 538 -6 694 92 932
543 1758 1285 2354 127 103 387 269 550 352 458 233 882 346 1420 377 88 5
355 -3 475 -15z"/>
<path d="M9760 8942 c-128 -394 -255 -786 -282 -869 l-49 -153 -908 -2 -908
-3 729 -530 c402 -291 731 -532 733 -535 2 -3 -122 -392 -275 -865 -154 -472
-278 -861 -276 -863 2 -2 333 235 735 527 401 292 733 531 736 531 3 0 334
-239 736 -531 402 -292 732 -529 734 -527 2 2 -122 390 -275 862 -154 473
-277 862 -275 866 2 3 332 244 733 536 l728 529 -907 3 -908 2 -50 153 c-27
83 -154 474 -281 867 -128 393 -233 716 -234 717 -2 2 -108 -320 -236 -715z"/>
</g>
</svg>
